<svg width="20" height="20" viewBox="0 0 20 20" fill="none" xmlns="http://www.w3.org/2000/svg">
<path fill-rule="evenodd" clip-rule="evenodd" d="M3.125 15C3.125 14.8342 3.19085 14.6753 3.30806 14.5581C3.42527 14.4408 3.58424 14.375 3.75 14.375H16.25C16.4158 14.375 16.5747 14.4408 16.6919 14.5581C16.8092 14.6753 16.875 14.8342 16.875 15C16.875 15.1658 16.8092 15.3247 16.6919 15.4419C16.5747 15.5592 16.4158 15.625 16.25 15.625H3.75C3.58424 15.625 3.42527 15.5592 3.30806 15.4419C3.19085 15.3247 3.125 15.1658 3.125 15ZM3.125 10C3.125 9.83424 3.19085 9.67527 3.30806 9.55806C3.42527 9.44085 3.58424 9.375 3.75 9.375H16.25C16.4158 9.375 16.5747 9.44085 16.6919 9.55806C16.8092 9.67527 16.875 9.83424 16.875 10C16.875 10.1658 16.8092 10.3247 16.6919 10.4419C16.5747 10.5592 16.4158 10.625 16.25 10.625H3.75C3.58424 10.625 3.42527 10.5592 3.30806 10.4419C3.19085 10.3247 3.125 10.1658 3.125 10ZM3.125 5C3.125 4.83424 3.19085 4.67527 3.30806 4.55806C3.42527 4.44085 3.58424 4.375 3.75 4.375H16.25C16.4158 4.375 16.5747 4.44085 16.6919 4.55806C16.8092 4.67527 16.875 4.83424 16.875 5C16.875 5.16576 16.8092 5.32473 16.6919 5.44194C16.5747 5.55915 16.4158 5.625 16.25 5.625H3.75C3.58424 5.625 3.42527 5.55915 3.30806 5.44194C3.19085 5.32473 3.125 5.16576 3.125 5V5Z" fill="#555555"/>
</svg>
