<svg width="16" height="16" viewBox="0 0 16 16" fill="none" xmlns="http://www.w3.org/2000/svg">
<path d="M8 16C3.57647 16 0 12.4235 0 8C0 3.57647 3.57647 0 8 0C12.4235 0 16 3.57647 16 8C16 12.4235 12.4235 16 8 16ZM8 0.941176C4.09412 0.941176 0.941176 4.09412 0.941176 8C0.941176 11.9059 4.09412 15.0588 8 15.0588C11.9059 15.0588 15.0588 11.9059 15.0588 8C15.0588 4.09412 11.9059 0.941176 8 0.941176Z" fill="#777777"/>
<path d="M5.55347 5.45883C5.69465 5.08236 5.83582 4.8 6.11818 4.56471C6.35347 4.32941 6.63582 4.14118 7.01229 4C7.38876 3.85883 7.76523 3.81177 8.18876 3.81177C8.51818 3.81177 8.84759 3.85883 9.12994 3.95294C9.41229 4.04706 9.69465 4.18824 9.92994 4.37647C10.1652 4.56471 10.3535 4.8 10.4476 5.08236C10.5888 5.36471 10.6358 5.69412 10.6358 6.02353C10.6358 6.49412 10.5417 6.87059 10.3535 7.2C10.1652 7.52941 9.88288 7.81177 9.60053 8.14118L8.98876 8.75294C8.84759 8.89412 8.70641 9.0353 8.65935 9.17647C8.56523 9.31765 8.51818 9.50589 8.51818 9.69412C8.47112 9.88236 8.47112 10.0235 8.47112 10.4H7.71818C7.71818 10.0235 7.71818 9.88236 7.76523 9.6C7.81229 9.36471 7.90641 9.12941 8.00053 8.89412C8.09465 8.70588 8.23582 8.51765 8.42406 8.32941C8.61229 8.14118 8.84759 7.95294 9.08288 7.67059C9.31818 7.4353 9.50641 7.2 9.64759 6.96471C9.78876 6.72941 9.88288 6.4 9.88288 6.11765C9.88288 5.88236 9.83582 5.64706 9.74171 5.45883C9.64759 5.27059 9.50641 5.08236 9.36523 4.94118C9.22406 4.8 9.03582 4.70588 8.80053 4.61177C8.56524 4.51765 8.377 4.47059 8.1417 4.47059C7.81229 4.47059 7.52994 4.51765 7.29465 4.65883C7.05935 4.75294 6.82406 4.94118 6.68288 5.12941C6.54171 5.31765 6.40053 5.55294 6.30641 5.8353C6.21229 6.11765 6.11818 6.25883 6.11818 6.58824H5.36523C5.36523 6.16471 5.41229 5.8353 5.55347 5.45883V5.45883Z" fill="#777777"/>
<path d="M8.47047 11.2941V12.2352H7.5293V11.2941H8.47047Z" fill="#777777"/>
</svg>
